<?xml version="1.0" encoding="UTF-8"?>
<svg width="62px" height="64px" viewBox="0 0 62 64" version="1.1" xmlns="http://www.w3.org/2000/svg" xmlns:xlink="http://www.w3.org/1999/xlink">
    <!-- Generator: sketchtool 50.2 (55047) - http://www.bohemiancoding.com/sketch -->
    <title>9D27F61D-F260-42A6-8030-B9955E563CBC</title>
    <desc>Created with sketchtool.</desc>
    <defs></defs>
    <g id="Page-1" stroke="none" stroke-width="1" fill="none" fill-rule="evenodd">
        <g id="Desktop-HD" transform="translate(-990.000000, -1205.000000)" fill="#FFFFFF" fill-rule="nonzero">
            <g id="Group-7" transform="translate(990.000000, 1205.000000)">
                <path d="M62,32 C62,28.8341333 59.7607667,26.2069333 56.8333333,25.696 L56.8333333,12.704 C59.7607667,12.1930667 62,9.5648 62,6.4 C62,2.8704 59.2193,0 55.8,0 C52.7341,0 50.1879667,2.31146667 49.693,5.33333333 L37.107,5.33333333 C36.6120333,2.31146667 34.0659,0 31,0 C27.9341,0 25.3879667,2.31146667 24.893,5.33333333 L12.307,5.33333333 C11.8120333,2.31146667 9.2659,0 6.2,0 C2.7807,0 0,2.8704 0,6.4 C0,9.5648 2.23923333,12.1930667 5.16666667,12.704 L5.16666667,25.696 C2.23923333,26.2069333 0,28.8352 0,32 C0,35.1648 2.23923333,37.7930667 5.16666667,38.304 L5.16666667,51.296 C2.23923333,51.8069333 0,54.4352 0,57.6 C0,61.1296 2.7807,64 6.2,64 C9.2659,64 11.8120333,61.6885333 12.307,58.6666667 L24.893,58.6666667 C25.3869333,61.6885333 27.9330667,64 31,64 C34.0669333,64 36.6120333,61.6885333 37.107,58.6666667 L49.693,58.6666667 C50.1869333,61.6885333 52.7330667,64 55.8,64 C59.2193,64 62,61.1296 62,57.6 C62,54.4352 59.7607667,51.8069333 56.8333333,51.296 L56.8333333,38.304 C59.7607667,37.7941333 62,35.1658667 62,32 Z M55.8,2.13333333 C58.0795333,2.13333333 59.9333333,4.04693333 59.9333333,6.4 C59.9333333,8.75306667 58.0795333,10.6666667 55.8,10.6666667 C53.5204667,10.6666667 51.6666667,8.75306667 51.6666667,6.4 C51.6666667,4.04693333 53.5204667,2.13333333 55.8,2.13333333 Z M52.2133,11.6096 C52.9593667,12.16 53.8273667,12.5397333 54.7666667,12.704 L54.7666667,25.696 C52.1761,26.1482667 50.1311333,28.2592 49.693,30.9333333 L44.4333333,30.9333333 L44.4333333,29.8666667 C44.4333333,29.2778667 43.9714333,28.8 43.4,28.8 L40.8518,28.8 C40.6699333,28.2048 40.4384667,27.6277333 40.1563667,27.0730667 L41.9595333,25.2106667 C42.3635667,24.7936 42.3635667,24.1194667 41.9595333,23.7024 L41.2289667,22.9482667 L52.2133,11.6096 Z M38.1372333,37.8581333 L39.7688667,39.5434667 L38.3077333,41.0517333 L36.6761,39.3674667 C36.3340667,39.0154667 35.8019,38.9536 35.3947667,39.2192 C34.6032333,39.7333333 33.7435,40.1024 32.8383,40.3146667 C32.3671,40.4245333 32.0333333,40.8565333 32.0333333,41.3546667 L32.0333333,43.7333333 L29.9666667,43.7333333 L29.9666667,41.3546667 C29.9666667,40.8565333 29.6329,40.4245333 29.1627333,40.3146667 C28.2575333,40.1024 27.3978,39.7333333 26.6062667,39.2192 C26.1981,38.9536 25.6659333,39.0165333 25.3249333,39.3674667 L23.6933,41.0517333 L22.2321667,39.5434667 L23.8638,37.8581333 C24.2048,37.5061333 24.2647333,36.9568 24.0074333,36.5354667 C23.5104,35.7194667 23.1528667,34.832 22.9462,33.8965333 C22.8387333,33.4112 22.4202333,33.0666667 21.9376667,33.0666667 L19.6333333,33.0666667 L19.6333333,30.9333333 L21.9376667,30.9333333 C22.4202333,30.9333333 22.8377,30.5888 22.9451667,30.1034667 C23.1518333,29.1690667 23.5093667,28.2805333 24.0064,27.4645333 C24.2637,27.0432 24.2037667,26.4938667 23.8627667,26.1418667 L22.2311333,24.4565333 L23.6922667,22.9482667 L25.3239,24.6325333 C25.6649,24.9845333 26.1981,25.0464 26.6052333,24.7808 C27.3967667,24.2666667 28.2565,23.8976 29.1617,23.6853333 C29.6329,23.5754667 29.9666667,23.1434667 29.9666667,22.6453333 L29.9666667,20.2666667 L32.0333333,20.2666667 L32.0333333,22.6453333 C32.0333333,23.1434667 32.3671,23.5754667 32.8372667,23.6853333 C33.7424667,23.8976 34.6022,24.2666667 35.3937333,24.7808 C35.8019,25.0464 36.3330333,24.9845333 36.6750667,24.6325333 L38.3067,22.9482667 L39.7678333,24.4565333 L38.1362,26.1418667 C37.7952,26.4938667 37.7352667,27.0432 37.9925667,27.4645333 C38.4896,28.2805333 38.8471333,29.168 39.0538,30.1034667 C39.1612667,30.5888 39.5797667,30.9333333 40.0623333,30.9333333 L42.3666667,30.9333333 L42.3666667,33.0666667 L40.0623333,33.0666667 C39.5797667,33.0666667 39.1623,33.4112 39.0548333,33.8965333 C38.8481667,34.8309333 38.4906333,35.7194667 37.9936,36.5354667 C37.7363,36.9568 37.7962333,37.5061333 38.1372333,37.8581333 Z M37.107,7.46666667 L49.693,7.46666667 C49.8521333,8.43626667 50.22,9.33226667 50.7521667,10.1024 L39.7678333,21.4410667 L39.0372667,20.6869333 C38.6332333,20.2698667 37.9801667,20.2698667 37.5761333,20.6869333 L35.7729667,22.5482667 C35.2356333,22.2581333 34.6755667,22.0181333 34.1,21.8314667 L34.1,19.2 C34.1,18.6112 33.6381,18.1333333 33.0666667,18.1333333 L32.0333333,18.1333333 L32.0333333,12.704 C34.6239,12.2517333 36.6688667,10.1408 37.107,7.46666667 Z M31,2.13333333 C33.2795333,2.13333333 35.1333333,4.04693333 35.1333333,6.4 C35.1333333,8.75306667 33.2795333,10.6666667 31,10.6666667 C28.7204667,10.6666667 26.8666667,8.75306667 26.8666667,6.4 C26.8666667,4.04693333 28.7204667,2.13333333 31,2.13333333 Z M12.307,7.46666667 L24.893,7.46666667 C25.3311333,10.1408 27.3761,12.2517333 29.9666667,12.704 L29.9666667,18.1333333 L28.9333333,18.1333333 C28.3619,18.1333333 27.9,18.6112 27.9,19.2 L27.9,21.8304 C27.3234,22.0181333 26.7633333,22.2570667 26.2270333,22.5472 L24.4238667,20.6858667 C24.0198333,20.2688 23.3667667,20.2688 22.9627333,20.6858667 L22.2321667,21.44 L11.2478333,10.1013333 C11.78,9.33226667 12.1478667,8.43626667 12.307,7.46666667 Z M20.7710333,22.9493333 L20.0404667,23.7034667 C19.6364333,24.1205333 19.6364333,24.7946667 20.0404667,25.2117333 L21.8436333,27.0741333 C21.5625667,27.6288 21.3300667,28.2058667 21.1482,28.8010667 L18.6,28.8010667 C18.0285667,28.8010667 17.5666667,29.2789333 17.5666667,29.8677333 L17.5666667,30.9344 L12.307,30.9344 C11.8699,28.2602667 9.8239,26.1493333 7.23333333,25.6970667 L7.23333333,12.704 C8.17263333,12.5397333 9.04063333,12.16 9.7867,11.6106667 L20.7710333,22.9493333 Z M2.06666667,6.4 C2.06666667,4.04693333 3.92046667,2.13333333 6.2,2.13333333 C8.47953333,2.13333333 10.3333333,4.04693333 10.3333333,6.4 C10.3333333,8.75306667 8.47953333,10.6666667 6.2,10.6666667 C3.92046667,10.6666667 2.06666667,8.75306667 2.06666667,6.4 Z M2.06666667,32 C2.06666667,29.6469333 3.92046667,27.7333333 6.2,27.7333333 C8.47953333,27.7333333 10.3333333,29.6469333 10.3333333,32 C10.3333333,34.3530667 8.47953333,36.2666667 6.2,36.2666667 C3.92046667,36.2666667 2.06666667,34.3530667 2.06666667,32 Z M6.2,61.8666667 C3.92046667,61.8666667 2.06666667,59.9530667 2.06666667,57.6 C2.06666667,55.2469333 3.92046667,53.3333333 6.2,53.3333333 C8.47953333,53.3333333 10.3333333,55.2469333 10.3333333,57.6 C10.3333333,59.9530667 8.47953333,61.8666667 6.2,61.8666667 Z M9.7867,52.3893333 C9.04063333,51.84 8.17263333,51.4602667 7.23333333,51.296 L7.23333333,38.304 C9.8239,37.8528 11.8688667,35.7408 12.307,33.0666667 L17.5666667,33.0666667 L17.5666667,34.1333333 C17.5666667,34.7221333 18.0285667,35.2 18.6,35.2 L21.1482,35.2 C21.3300667,35.7952 21.5615333,36.3722667 21.8436333,36.9269333 L20.0404667,38.7893333 C19.6364333,39.2064 19.6364333,39.8805333 20.0404667,40.2976 L20.7710333,41.0517333 L9.7867,52.3893333 Z M24.893,56.5333333 L12.307,56.5333333 C12.1478667,55.5637333 11.78,54.6677333 11.2478333,53.8976 L22.2321667,42.5589333 L22.9627333,43.3130667 C23.3667667,43.7301333 24.0198333,43.7301333 24.4238667,43.3130667 L26.2270333,41.4517333 C26.7643667,41.7418667 27.3244333,41.9818667 27.9,42.1685333 L27.9,44.8 C27.9,45.3888 28.3619,45.8666667 28.9333333,45.8666667 L29.9666667,45.8666667 L29.9666667,51.296 C27.3761,51.7482667 25.3311333,53.8592 24.893,56.5333333 Z M31,61.8666667 C28.7204667,61.8666667 26.8666667,59.9530667 26.8666667,57.6 C26.8666667,55.2469333 28.7204667,53.3333333 31,53.3333333 C33.2795333,53.3333333 35.1333333,55.2469333 35.1333333,57.6 C35.1333333,59.9530667 33.2795333,61.8666667 31,61.8666667 Z M49.693,56.5333333 L37.107,56.5333333 C36.6688667,53.8592 34.6239,51.7482667 32.0333333,51.296 L32.0333333,45.8666667 L33.0666667,45.8666667 C33.6381,45.8666667 34.1,45.3888 34.1,44.8 L34.1,42.1696 C34.6766,41.9818667 35.2366667,41.7429333 35.7729667,41.4528 L37.5761333,43.3141333 C37.9801667,43.7312 38.6332333,43.7312 39.0372667,43.3141333 L39.7678333,42.56 L50.7521667,53.8986667 C50.22,54.6677333 49.8521333,55.5637333 49.693,56.5333333 Z M41.2289667,41.0506667 L41.9595333,40.2965333 C42.3635667,39.8794667 42.3635667,39.2053333 41.9595333,38.7882667 L40.1563667,36.9258667 C40.4374333,36.3712 40.6699333,35.7941333 40.8518,35.1989333 L43.4,35.1989333 C43.9714333,35.1989333 44.4333333,34.7210667 44.4333333,34.1322667 L44.4333333,33.0656 L49.693,33.0656 C50.1301,35.7397333 52.1761,37.8506667 54.7666667,38.3029333 L54.7666667,51.296 C53.8273667,51.4602667 52.9593667,51.84 52.2133,52.3893333 L41.2289667,41.0506667 Z M59.9333333,57.6 C59.9333333,59.9530667 58.0795333,61.8666667 55.8,61.8666667 C53.5204667,61.8666667 51.6666667,59.9530667 51.6666667,57.6 C51.6666667,55.2469333 53.5204667,53.3333333 55.8,53.3333333 C58.0795333,53.3333333 59.9333333,55.2469333 59.9333333,57.6 Z M55.8,36.2666667 C53.5204667,36.2666667 51.6666667,34.3530667 51.6666667,32 C51.6666667,29.6469333 53.5204667,27.7333333 55.8,27.7333333 C58.0795333,27.7333333 59.9333333,29.6469333 59.9333333,32 C59.9333333,34.3530667 58.0795333,36.2666667 55.8,36.2666667 Z" id="Shape"></path>
                <path d="M31,27 C28.243,27 26,29.4673 26,32.5 C26,35.5327 28.243,38 31,38 C33.757,38 36,35.5327 36,32.5 C36,29.4673 33.757,27 31,27 Z M31,35.8 C29.346,35.8 28,34.3194 28,32.5 C28,30.6806 29.346,29.2 31,29.2 C32.654,29.2 34,30.6806 34,32.5 C34,34.3194 32.654,35.8 31,35.8 Z" id="Shape"></path>
            </g>
        </g>
    </g>
</svg>