<?xml version="1.0" encoding="UTF-8"?>
<svg width="64px" height="64px" viewBox="0 0 64 64" version="1.1" xmlns="http://www.w3.org/2000/svg" xmlns:xlink="http://www.w3.org/1999/xlink">
    <!-- Generator: sketchtool 50.2 (55047) - http://www.bohemiancoding.com/sketch -->
    <title>FC4CB808-7986-493F-8E4A-D74236C6C251</title>
    <desc>Created with sketchtool.</desc>
    <defs></defs>
    <g id="Page-1" stroke="none" stroke-width="1" fill="none" fill-rule="evenodd">
        <g id="Desktop-HD" transform="translate(-472.000000, -1202.000000)" fill="#FFFFFF" fill-rule="nonzero">
            <g id="Group-8" transform="translate(472.000000, 1202.000000)">
                <path d="M54.7131325,13.4226189 L49.5089585,13.4226189 C48.9797204,7.63766781 44.1157708,3.10045126 38.1933451,3.10045126 C36.3914156,3.10045126 34.6272888,3.52896615 33.0269738,4.34818581 C30.3051782,1.57544236 26.6005119,1.99472513e-05 22.7068321,1.99472513e-05 C15.0706832,-0.0125834321 8.79543217,5.94881498 8.29139594,13.460429 C3.64166174,13.9645642 0,17.9220253 0,22.7113095 C0,27.8282815 4.17089978,32 9.28686749,32 L54.7131325,32 C59.8417011,32 64,27.8282815 64,22.7113095 C64,17.5943375 59.8291002,13.4226189 54.7131325,13.4226189 Z M54.7131325,29.9330458 L9.28686749,29.9330458 C5.3049813,29.9330458 2.05394763,26.6939773 2.05394763,22.6987061 C2.05394763,18.7034348 5.3049813,15.4769697 9.28686749,15.4769697 L10.3201418,15.4769697 L10.3201418,14.4434926 C10.3201418,7.61246105 15.8771412,2.05437077 22.7068321,2.05437077 C26.2854893,2.05437077 29.6877338,3.60458643 32.0441032,6.31431298 L32.6111439,6.9696887 L33.3545974,6.51596705 C34.8163024,5.62112712 36.4922229,5.1421987 38.1933451,5.1421987 C43.3219138,5.1421987 47.4802126,9.31391725 47.4802126,14.4308893 L47.4802126,15.4643664 L54.7131325,15.4643664 C58.6950187,15.4643664 61.9460524,18.7034348 61.9460524,22.6987061 C61.9460524,26.6939773 58.7076196,29.9330458 54.7131325,29.9330458 Z" id="Shape"></path>
                <path d="M47,59.8158625 L47,41 L20,41 L20,59.8158625 L20.0126761,59.8158625 L29.3549296,59.8158625 L29.3549296,61.9079312 L26.2366197,61.9079312 L26.2366197,64 L29.3549296,64 L37.6577465,64 L40.7760563,64 L40.7760563,61.9079312 L37.6577465,61.9079312 L37.6577465,59.8158625 L47,59.8158625 Z M35.5915493,61.9079312 L31.4338028,61.9079312 L31.4338028,59.8158625 L35.5915493,59.8158625 L35.5915493,61.9079312 Z M29.3676056,57.7237937 L22.0915493,57.7237937 L22.0915493,43.0920688 L44.9464789,43.0920688 L44.9464789,57.7237937 L37.6704225,57.7237937 L29.3676056,57.7237937 Z" id="Shape"></path>
                <path d="M1,44 L1,64 L16,64 L16,44 L1,44 Z M13.8552746,61.9987797 L3.14472537,61.9987797 L3.14472537,46.0012203 L13.8552746,46.0012203 L13.8552746,61.9987797 Z" id="Shape"></path>
                <path d="M53,48 L53,64 L63,64 L63,48 L53,48 Z M54.990232,50.0015256 L60.997558,50.0015256 L60.997558,57.9954233 L54.990232,57.9954233 L54.990232,50.0015256 Z M61.009768,61.9984744 L55.002442,61.9984744 L55.002442,59.9969489 L61.009768,59.9969489 L61.009768,61.9984744 Z" id="Shape"></path>
                <rect id="Rectangle-path" x="7" y="59" width="2" height="2"></rect>
                <polygon id="Shape" points="19.8552746 34 19.8552746 36.0034904 7 36.0034904 7 41 9.13164778 41 9.13164778 38.0069808 22 38.0069808 22 34"></polygon>
                <polygon id="Shape" points="46.1447254 36.0034904 46.1447254 34 44 34 44 38.0069808 56.8552746 38.0069808 56.8552746 41 59 41 59 36.0034904"></polygon>
            </g>
        </g>
    </g>
</svg>